<?xml version="1.0" standalone="no"?>
<!DOCTYPE svg PUBLIC "-//W3C//DTD SVG 1.1//EN" "http://www.w3.org/Graphics/SVG/1.1/DTD/svg11.dtd" >
<svg xmlns="http://www.w3.org/2000/svg">
<metadata>
Created by FontForge 20120731 at Sat Jan 16 20:36:58 2016
 By Ads
</metadata>
<defs>
<font id="iconfont" horiz-adv-x="1024" >
  <font-face 
    font-family="iconfont"
    font-weight="500"
    font-stretch="normal"
    units-per-em="1024"
    panose-1="2 0 6 3 0 0 0 0 0 0"
    ascent="896"
    descent="-128"
    x-height="792"
    bbox="-0.490196 -212 2458 896"
    underline-thickness="50"
    underline-position="-100"
    unicode-range="U+0078-E631"
  />
<missing-glyph horiz-adv-x="374" 
d="M34 0v682h272v-682h-272zM68 34h204v614h-204v-614z" />
    <glyph glyph-name=".notdef" horiz-adv-x="374" 
d="M34 0v682h272v-682h-272zM68 34h204v614h-204v-614z" />
    <glyph glyph-name=".null" horiz-adv-x="0" 
 />
    <glyph glyph-name="nonmarkingreturn" horiz-adv-x="341" 
 />
    <glyph glyph-name="x" unicode="x" horiz-adv-x="1001" 
d="M281 543q-27 -1 -53 -1h-83q-18 0 -36.5 -6t-32.5 -18.5t-23 -32t-9 -45.5v-76h912v41q0 16 -0.5 30t-0.5 18q0 13 -5 29t-17 29.5t-31.5 22.5t-49.5 9h-133v-97h-438v97zM955 310v-52q0 -23 0.5 -52t0.5 -58t-10.5 -47.5t-26 -30t-33 -16t-31.5 -4.5q-14 -1 -29.5 -0.5
t-29.5 0.5h-32l-45 128h-439l-44 -128h-29h-34q-20 0 -45 1q-25 0 -41 9.5t-25.5 23t-13.5 29.5t-4 30v167h911zM163 247q-12 0 -21 -8.5t-9 -21.5t9 -21.5t21 -8.5q13 0 22 8.5t9 21.5t-9 21.5t-22 8.5zM316 123q-8 -26 -14 -48q-5 -19 -10.5 -37t-7.5 -25t-3 -15t1 -14.5
t9.5 -10.5t21.5 -4h37h67h81h80h64h36q23 0 34 12t2 38q-5 13 -9.5 30.5t-9.5 34.5q-5 19 -11 39h-368zM336 498v228q0 11 2.5 23t10 21.5t20.5 15.5t34 6h188q31 0 51.5 -14.5t20.5 -52.5v-227h-327z" />
    <glyph glyph-name="uniE600" unicode="&#xe600;" 
d="M777 505l-308 307v-405l-170 170l-60 -64l213 -213l-213 -213l60 -60l170 171v-410l308 307l-201 205zM653 505l-98 -103v197zM653 95l-98 -98v196z" />
    <glyph glyph-name="uniE601" unicode="&#xe601;" 
d="M692 97q-98 0 -181 48t-131 130t-48 179q0 120 73 216q-121 -38 -198.5 -141t-77.5 -233q0 -106 53 -196t144 -142.5t198 -52.5q126 0 227 70.5t143 183.5q-91 -62 -202 -62z" />
    <glyph glyph-name="uniE602" unicode="&#xe602;" 
d="M512 556v-246l-448 246v-512l448 246v-246l448 256z" />
    <glyph glyph-name="uniE603" unicode="&#xe603;" 
d="M274 -191h102l230 418h264q7 0 17 0.5t36.5 4.5t47 10.5t37 22t16.5 35.5q0 15 -8.5 27t-22 19.5t-30 13t-33 8t-30 4t-22.5 1.5h-8h-264l-230 418h-102l127 -418h-183l-116 105h-102l82 -178l-82 -177h102l116 104h183z" />
    <glyph glyph-name="uniE604" unicode="&#xe604;" 
d="M127 394v-44q0 -24 17.5 -40.5t41.5 -18.5l233 -12l12 -233q1 -16 9 -29.5t21 -21.5t29 -8h44q24 0 40.5 17.5t18.5 41.5l12 233l233 12q24 2 41.5 18.5t17.5 40.5v44q0 24 -17.5 40.5t-41.5 18.5l-233 12l-12 233q-1 16 -9 29.5t-21 21.5t-29 8h-44q-9 0 -18 -3
t-16 -8.5t-12.5 -13t-8.5 -16.5t-4 -18l-12 -233l-233 -12q-16 -1 -29.5 -9t-21.5 -21t-8 -29z" />
    <glyph glyph-name="uniE605" unicode="&#xe605;" 
d="M160 204h704v-32h-704v32zM160 316h704v-32h-704v32zM160 428h704v-32h-704v32z" />
    <glyph glyph-name="uniE606" unicode="&#xe606;" 
d="M512 364q-27 0 -45.5 -18.5t-18.5 -45.5t18.5 -45.5t45.5 -18.5t45.5 18.5t18.5 45.5t-18.5 45.5t-45.5 18.5zM257 364q-27 0 -45.5 -18.5t-18.5 -45.5t18.5 -45.5t45 -18.5t45.5 18.5t19 45.5t-19 45.5t-45 18.5zM768 364q-27 0 -45.5 -18.5t-18.5 -45.5t18.5 -45.5
t45.5 -18.5t45.5 18.5t18.5 45.5t-18.5 45.5t-45.5 18.5z" />
    <glyph glyph-name="uniE607" unicode="&#xe607;" 
d="M512 556l-448 -256l448 -256v246l448 -246v512l-448 -246v246z" />
    <glyph glyph-name="uniE608" unicode="&#xe608;" 
d="M897 -37l-227 226q67 84 67 191q0 82 -41 152.5t-111 111t-152 40.5q-126 0 -215 -89t-89 -215t89 -215.5t215 -89.5q107 0 191 68l226 -227zM240.5 186.5q-38.5 38.5 -59 88.5t-20.5 104q0 113 79.5 193t192 80t192.5 -79.5t80 -192.5q0 -55 -21 -104.5t-59.5 -88.5
t-88 -59.5t-104 -20.5t-104 20.5t-88 59z" />
    <glyph glyph-name="uniE609" unicode="&#xe609;" 
d="M960 398h-343l-105 318l-105 -318h-343l280 -196l-109 -318l277 197l277 -197l-110 318z" />
    <glyph glyph-name="uniE60A" unicode="&#xe60a;" 
d="M512 716h-1q-113 0 -208.5 -56t-151 -151.5t-55.5 -208.5t55.5 -208.5t151 -151.5t208.5 -56h1q85 0 162 33t132.5 88.5t88.5 132.5t33 162q0 172 -122 294t-294 122zM512 -83h-1q-104 0 -192 51.5t-139 139.5t-51 192t51 192t139 139t192 52h1q78 0 149 -30.5t122 -82
t81.5 -122t30.5 -148.5q0 -39 -8 -77t-22.5 -72t-35.5 -65t-46.5 -56.5t-56.5 -46.5t-65 -35.5t-72 -22.5t-77 -8zM645 468q-58 -13 -116 -15v-136h135q-1 41 -6 79t-13 72zM529 647v-164q13 1 27 2t27.5 2.5t26.5 4t26 6.5q-10 30 -22 56t-26 45t-29 31t-30 17zM387 498
q53 -13 108 -15v164q-67 -19 -108 -149zM761 545q-70 72 -168 95q45 -46 73 -134q25 7 49 17t46 22zM695 317h166q-5 115 -79 205q-52 -29 -108 -46q19 -74 21 -159zM359 317h136v136q-20 0 -39.5 2t-39 5.5t-37.5 8.5q-6 -23 -10 -47t-6.5 -51t-3.5 -54zM664 283h-135v-136
q60 -2 116 -15q17 70 19 151zM379 132q57 14 116 15v136h-136q2 -82 20 -151zM495 -47v164q-55 -2 -108 -15q19 -61 48 -100.5t60 -48.5zM593 -40q98 23 168 95q-15 8 -30.5 15t-31.5 13t-33 12q-28 -88 -73 -135zM429 640q-96 -24 -166 -95q15 -8 30.5 -15t31.5 -13t32 -11
q28 87 72 134zM674 124q28 -9 55 -20.5t53 -25.5q74 90 79 205h-166q-2 -85 -21 -159zM529 117v-164q20 6 39.5 25.5t37 51.5t30.5 73q-52 12 -107 14zM349 476q-56 18 -107 46q-14 -17 -26 -35.5t-21 -39t-16 -41.5t-11 -43.5t-5 -45.5h166q1 84 20 159zM328 283h-165
q5 -115 79 -205q52 29 107 46q-19 75 -21 159zM263 55q70 -71 166 -95q-44 47 -72 134q-24 -7 -48 -17t-46 -22z" />
    <glyph glyph-name="uniE60B" unicode="&#xe60b;" 
d="M864 236l87 152h-70q-17 62 -52.5 116t-84.5 93t-111 61t-128 22h-2q-39 0 -76.5 -7.5t-72.5 -22.5t-66.5 -36.5t-59.5 -49.5q-54 -55 -83 -127t-28.5 -150t30 -149.5t85.5 -126.5q55 -54 125.5 -83.5t147.5 -29.5h2q94 1 177 44.5t138 120.5l-22 15
q-51 -71 -128.5 -111.5t-164.5 -41.5h-2q-149 0 -255 105q-51 52 -79 118t-28.5 139t26.5 140t78 118.5t117 79.5t139 29h2q123 0 219.5 -75t128.5 -191l-76 -1zM355 308l1 -190q0 -8 6 -13.5t13 -5.5l261 1q8 0 14 6q1 1 2 2.5t2 3.5t1.5 4t-0.5 4l-1 190q0 3 -1 6t-2.5 5
t-4 4t-5.5 3t-6 1h-25l-1 45q0 22 -8.5 41.5t-22.5 33.5t-33.5 22t-40.5 8q-44 0 -74.5 -31t-30.5 -75l1 -45l-26 -1q-5 0 -9.5 -2.5t-7 -7t-2.5 -9.5zM426 373q0 33 23 56t55 24q22 0 40 -10.5t28.5 -29t10.5 -39.5v-45l-78 -1h-79v45zM628 302l1 -175l-246 -2l-1 176z" />
    <glyph glyph-name="uniE60C" unicode="&#xe60c;" 
d="M128 341h85v86h-85v-86zM128 171h85v85h-85v-85zM128 512h85v85h-85v-85zM299 341h597v86h-597v-86zM299 171h597v85h-597v-85zM299 597v-85h597v85h-597z" />
    <glyph glyph-name="uniE60D" unicode="&#xe60d;" 
d="M731 611v-622q0 -15 -10.5 -25.5t-25.5 -10.5t-26 10l-190 191h-150q-15 0 -25.5 10.5t-10.5 25.5v220q0 15 10.5 25.5t25.5 10.5h150l190 191q11 10 26 10t25.5 -10.5t10.5 -25.5z" />
    <glyph glyph-name="uniE60E" unicode="&#xe60e;" 
d="M855 461l-271 251v-154q-20 1 -41 -1t-52 -6.5t-60.5 -15t-62.5 -25.5t-62.5 -40t-56 -57t-47 -77.5t-32.5 -99.5q-1 -4 -1.5 -11.5t1 -31.5t7 -48t19 -58t34 -65.5t56 -67.5t80.5 -66q-1 6 -4 15.5t-9 39.5t-9.5 59.5t-3 69.5t6.5 75t23 72t43.5 64t70 46t100.5 24v-143
z" />
    <glyph glyph-name="uniE60F" unicode="&#xe60f;" 
d="M896 684q34 0 60 -26t26 -60v-512q0 -34 -26 -59t-60 -25h-170v84h170v512h-768v-512h170v-84h-170q-34 0 -60 25t-26 59v512q0 34 26 60t60 26h768zM256 -126l256 256l256 -256h-512z" />
    <glyph glyph-name="uniE610" unicode="&#xe610;" 
d="M649 505l-137 -137l-137 137l-68 -68l137 -137l-137 -137l68 -68l137 137l137 -137l68 68l-137 137l137 137z" />
    <glyph glyph-name="uniE611" unicode="&#xe611;" horiz-adv-x="2458" 
d="M2396 361h-24q-15 126 -86 229t-182.5 162.5t-239.5 59.5q-181 0 -320.5 -112.5t-178.5 -284.5l-117 61q-19 10 -38 0l-117 -61q-40 172 -179 284.5t-320 112.5q-129 0 -240.5 -59.5t-182 -162.5t-85.5 -229h-25q-25 0 -43 -18t-18 -43t18 -43t43 -18h25
q11 -94 55.5 -177.5t111.5 -143.5t155.5 -95t185.5 -35q104 0 199 40.5t163.5 109t109 163.5t40.5 199q0 1 -1 28l124 65l124 -65q-1 -25 -1 -28q0 -104 40.5 -199t109 -163.5t163.5 -109t199 -40.5q128 0 239.5 59.5t182.5 162.5t86 229h24q26 0 44 18t18 43t-18 43t-44 18
zM594 -130q-117 0 -216 57.5t-156.5 156.5t-57.5 216t57.5 216t156.5 156.5t216 57.5t216 -57.5t156.5 -156.5t57.5 -216q0 -165 -110 -287q-107 -119 -265 -140q-28 -3 -55 -3zM1864 -130q-117 0 -216 57.5t-156.5 156.5t-57.5 216t57.5 216t156.5 156.5t216 57.5
q87 0 166.5 -34t137.5 -91.5t92 -137.5t34 -167q0 -165 -110 -287q-108 -119 -265 -140q-28 -3 -55 -3z" />
    <glyph glyph-name="uniE612" unicode="&#xe612;" horiz-adv-x="1238" 
d="M619 -212q-122 89 -320 85q-50 -1 -99 -10t-83.5 -21t-62 -24.5t-40.5 -21.5l-14 -8v248v95v276v33v258q187 160 452 97q99 -24 167 -63q7 4 20 11t54 23t83 27t102.5 16.5t116.5 -1.5t121 -34.5t121 -75.5v-227v-64v-276v-95v-248q-5 3 -14.5 8.5t-40.5 19.5t-63.5 25
t-82 20.5t-97.5 11.5q-194 8 -320 -85zM597 684q-230 135 -444 59q-70 -25 -110 -59v-811q193 78 469 22q52 -11 85 -22v811zM1195 684q-5 4 -13.5 11t-38.5 23.5t-62.5 28.5t-83 20t-102.5 4.5t-119.5 -25t-135.5 -62.5v-811q5 2 13 5.5t37 12t61 14.5t82.5 10.5t102.5 2.5
t120.5 -13t138.5 -32v811z" />
    <glyph glyph-name="uniE613" unicode="&#xe613;" 
d="M819 710h-614q-42 0 -72.5 -30.5t-30.5 -72.5v-614q0 -42 30.5 -72.5t72.5 -30.5h614q42 0 72.5 30.5t30.5 72.5v614q0 42 -30.5 72.5t-72.5 30.5zM666 274h-128v-128q0 -7 -3.5 -13t-9 -9t-13.5 -3t-13.5 3t-9 9t-3.5 13v128h-128q-7 0 -13 3.5t-9 9t-3 13.5t3 13.5t9 9
t13 3.5h128v128q0 7 3.5 13t9 9t13.5 3q12 0 19 -7t7 -18v-128h128q11 0 18 -7t7 -19t-7 -19t-18 -7z" />
    <glyph glyph-name="uniE614" unicode="&#xe614;" 
d="M256 620h158v-640h-158v640zM610 620h158v-640h-158v640z" />
    <glyph glyph-name="uniE615" unicode="&#xe615;" 
d="M512 620q-48 0 -94.5 -7t-91.5 -21t-87 -34t-81 -47t-74 -59l-20 -19l20 -20l64 -64l19 -18l19 17q45 41 97.5 69.5t110.5 43t118 14.5t118 -14.5t110.5 -43t96.5 -69.5l20 -17l18 18l65 64l20 20l-21 19q-58 54 -126.5 91.5t-144.5 57t-156 19.5zM795 299
q-58 53 -131 81t-151 28h-1h-17q-153 -7 -266 -109l-21 -19l21 -20l65 -65l18 -18l19 17q79 69 181 69t181 -69l19 -17l18 18l66 65l20 20zM512 -20l20 19l105 104l21 21l-23 19q-54 40 -123 40q-39 0 -65 -10t-58 -30l-23 -19l21 -21l106 -104z" />
    <glyph glyph-name="uniE616" unicode="&#xe616;" 
d="M1017 298q0 -68 -18 -133.5t-50.5 -121.5t-79.5 -102.5t-102.5 -79.5t-121 -51t-134.5 -17h-11h-10q-6 0 -11 0.5t-11 0.5l-10 2q-6 0 -11 0.5t-10.5 1t-10.5 1.5t-11 2q-178 37 -292 175q-58 70 -87.5 150.5t-29.5 171.5q0 103 40 196.5t108 161.5t162 108t197 40
q81 0 158 -26t139.5 -72.5t109 -108.5t72 -139.5t25.5 -159.5zM609 115q0 -2 -0.5 -14.5t2.5 -17.5q2 -4 3 -11.5t2 -10.5q1 -6 3.5 -10t6.5 -8q1 -1 3 -2l4 -2q2 -1 3.5 -1.5t3.5 -1.5q3 -1 5.5 -2t5.5 -2t5.5 -2t5.5 -2t5 -2q5 -1 13 -3.5t11 -3.5q2 -1 4 -1.5t3.5 -1
t3.5 -1t3.5 -1t3.5 -1.5t4 -1q21 -6 42 -13q3 0 7 -1.5t8.5 -2.5t7.5 -2t7.5 -2t9.5 -2.5t8 -2.5q6 -2 8 -2q15 -4 18 -5q4 -1 7 2.5t6.5 7t7.5 8t6 7.5l4 4q4 4 6 7q2 2 11 15q2 2 3 4l4 6l2 4q15 21 16 22q4 7 7.5 14t7.5 16q3 4 5 8t3.5 8.5t3.5 8.5q5 13 11 29q3 8 7 24
q1 2 1.5 4.5t1 4.5t1.5 5t1 4q1 1 1 4q2 5 3 8q0 2 2 15q0 3 1 7t1.5 7t1 7t1 7.5t0.5 6.5q2 16 2 32q0 13 -1 31q-1 17 -4 50q-1 5 -3 17q-1 6 -2 10q0 3 -1 5.5t-2 5.5t-1.5 5t-1 5t-1 5t-1.5 4.5t-1 4.5q-3 7 -7 20q-1 2 -3 6.5t-3 7t-2.5 6.5t-2.5 7l-4 8l-2 6
q-2 4 -4.5 8.5t-3.5 7.5q-1 1 -2 3.5t-2 4t-2 3.5l-2 4q-10 17 -16 27q-1 1 -2 3t-2.5 3.5t-2.5 3t-2.5 3.5t-2.5 3t-2.5 3.5t-2.5 3.5t-4.5 5.5t-5 6.5t-4 5t-4.5 6t-5 5q-6 8 -20 21q-6 6 -12 11.5t-12 10.5q-7 6 -14 11.5t-15 12.5q-3 2 -5 3.5t-4.5 3.5t-5 3.5t-4.5 2.5
q-4 3 -8 5.5t-7 3.5t-8 4q-1 1 -3 2q-15 9 -23 12q-14 7 -29 13q-9 4 -17 7t-16 5q-4 1 -25 6q-2 1 -6.5 2t-6.5 1q-2 1 -7 2t-9 2l-8 2q-13 2 -29 3q-20 2 -35 2q-6 0 -28 -1q-18 -1 -39 -2q-1 0 -7 -1q-2 -1 -7.5 -2t-8.5 -2q-2 0 -4.5 -0.5t-4 -0.5t-4 -0.5t-4.5 -1.5h-4
q-2 -1 -4 -1q-13 -3 -33 -10q-19 -7 -34 -13q-5 -2 -9.5 -4t-9.5 -4t-9 -4l-18 -10q-9 -5 -19 -10q-12 -7 -24 -16q-6 -4 -17 -13l-6 -5q-16 -13 -18 -15q-7 -7 -14 -13.5t-13 -13.5q-3 -3 -6 -6.5t-4.5 -5.5t-5.5 -6.5t-5 -5.5q-1 -2 -3.5 -4.5t-3.5 -4t-3 -3.5t-3.5 -4
t-2.5 -4q-4 -5 -7.5 -10.5t-7.5 -11.5l-8 -14q-4 -6 -8 -14q-2 -3 -4 -6.5t-3.5 -7t-3.5 -6.5q-4 -8 -9 -20q-4 -12 -9 -25l-3 -7q-1 -5 -1 -6q-1 -1 -3.5 -8.5t-3.5 -11.5q-1 -3 -2 -10t-2 -9q0 -2 -2.5 -11t-3.5 -14q-2 -14 -4 -30q-2 -22 -2 -35q0 -4 0.5 -9t0.5 -8v-10
q0 -5 0.5 -8t0.5 -10v-8q0 -4 2 -17v-2q1 -8 2 -12t2.5 -10.5t2.5 -8.5q0 -2 0.5 -5t0.5 -5l2 -6q0 -2 1 -4q1 -4 2.5 -8t2.5 -8l3 -8q9 -28 12 -34t7.5 -16t5.5 -13q2 -4 15 -28q8 -15 10 -17q1 -2 2.5 -4t2.5 -3.5t3 -4t3 -4t3 -3.5t3 -4q12 -15 14 -18q5 -5 14 -15.5
t13 -15.5q3 -2 5.5 -2.5t5.5 0.5t10 3q2 0 9.5 2.5t11.5 3.5t10.5 3.5t9.5 3.5q2 0 5 1t6.5 2t5.5 1q3 1 10.5 4t11.5 4q32 9 35 10q1 0 22 6q13 4 16 5q5 2 21 8q14 5 16 6q4 4 7 9.5t5 11.5q7 21 6 50q0 6 -0.5 17t-0.5 17q0 5 -6 9l-11 11q-1 1 -1 3q-2 13 -3 16t-1.5 9
t-1.5 8q-2 10 -5 17q-1 3 -4.5 8.5t-4.5 8.5q-8 17 -14 34q-2 5 -5 16l-6 16q-1 1 -2 4.5t-2 6t-3 4.5q-14 11 -15 33q0 3 0.5 6t1.5 6q6 16 11.5 19.5t4.5 8.5q-2 6 -3.5 12t-2.5 13q-2 11 -4 25q0 2 -1 7.5t-1 8.5t-0.5 7.5t-1 8.5t-0.5 7q0 8 1 36l2 12q1 6 2.5 12.5
t4.5 11.5q9 20 13 25q8 13 20 23q5 5 11 8.5t13 7.5q11 6 25 11q2 1 3.5 1.5t4 1t4 1t4 1t3.5 1t4 1t4 1.5l14 2q25 4 26 4q46 1 60 -2q4 -1 12.5 -2.5t13.5 -2.5q1 0 6.5 -1.5t7.5 -2t6 -2.5t7 -4t9 -4.5t9 -4.5q12 -8 21 -18q13 -13 17 -21l4 -8q2 -4 4 -9.5t3 -8t3 -9.5
q3 -9 4 -18.5t1 -20.5q0 -10 -1 -45q0 -2 -0.5 -5t-0.5 -6v-5q0 -3 -0.5 -6t-0.5 -6q0 -4 -0.5 -12t-1 -14t-0.5 -12q-1 -4 3 -8q11 -12 13 -22q2 -13 -1.5 -24.5t-13.5 -20.5l-4 -7q-1 -1 -1.5 -3.5t-1.5 -4t-2 -3.5v-4l-2 -4q0 -2 -1 -3.5t-1.5 -2.5t-1 -3.5t-1 -3
t-1.5 -3t-1 -3.5l-5 -10l-4 -12q-3 -6 -5 -11q-1 -3 -2.5 -6.5t-3 -6.5t-2.5 -6t-2.5 -6.5t-2.5 -6.5t-1.5 -5.5t-0.5 -5.5t-0.5 -5.5t-1 -5.5t-0.5 -6q-3 -12 -5 -13q-2 -2 -6 -5.5t-6 -5.5q-4 -3 -4 -9v-29z" />
    <glyph glyph-name="uniE617" unicode="&#xe617;" 
d="M660 -3l-387 387l387 387l90 -91l-296 -296l297 -296z" />
    <glyph glyph-name="uniE618" unicode="&#xe618;" 
d="M511 762q-77 0 -147 -29.5t-120.5 -80.5t-80.5 -120.5t-30 -146.5t30 -147t80.5 -120.5t120.5 -80.5t147 -30q61 0 118.5 19t104 54t81.5 81.5t54 104t19 119.5q0 102 -50.5 189t-137.5 137.5t-189 50.5zM694 255q7 -7 6 -18t-9 -19l-13 -14q-9 -8 -20 -9t-18 7l-129 129
l-130 -129q-4 -4 -8.5 -5.5t-9.5 -1t-10 2.5t-9 6l-14 14q-8 8 -9 19t7 18l129 130l-129 129q-8 7 -7 18t9 20l14 13q8 8 19 9t18 -6l130 -130l129 130q7 7 18 6t20 -9l13 -13q5 -6 7.5 -13t1 -13.5t-5.5 -11.5l-130 -129z" />
    <glyph glyph-name="uniE619" unicode="&#xe619;" 
d="M879 794q-11 0 -17 -3l-743 -298q-7 -3 -10.5 -10t-2 -13.5t7.5 -12t14 -5.5h431q10 0 15.5 -5.5t5.5 -15.5v-431q0 -9 6.5 -15t15.5 -6q12 0 19 12l298 745q5 11 3 21.5t-7.5 18.5t-15 13t-20.5 5zM623 111v320q0 13 -5 25t-13.5 20.5t-20.5 13.5t-25 5h-320l640 256z
" />
    <glyph glyph-name="uniE61A" unicode="&#xe61a;" 
d="M399 689l92 92v-504q0 -9 5.5 -15t15.5 -6q6 0 11 2.5t7.5 7.5t2.5 11v504l92 -92q3 -3 6.5 -4.5t8.5 -1.5q9 0 15 6t6 15t-6 15l-128 128l-6 4q-7 4 -18 0q-1 -1 -3 -2t-3 -2l-128 -128q-6 -6 -6 -15t6 -15t15 -6t15 6zM811 597h-171v-42h171v-598h-598v598h171v42h-171
q-11 0 -21 -5.5t-15.5 -15.5t-5.5 -21v-598q0 -7 2 -13.5t6 -11.5t9 -9t11.5 -6t13.5 -2h598q17 0 29.5 12.5t12.5 29.5v598q0 17 -12.5 29.5t-29.5 12.5z" />
    <glyph glyph-name="uniE61B" unicode="&#xe61b;" 
d="M462 -4v607l-190 -175h-208v-256h208zM574 101q66 89 66 199q0 55 -17 106t-49 93l-41 -30q56 -76 56 -169q0 -47 -14.5 -90t-41.5 -79zM707 9q96 130 96 291t-96 291l-40 -30q86 -117 86 -261t-86 -261zM793 653q116 -157 116 -353t-116 -353l41 -31q61 82 93.5 180
t32.5 204q0 213 -126 384z" />
    <glyph glyph-name="uniE61C" unicode="&#xe61c;" 
d="M786 565l-322 -352l-185 201l-92 -101l277 -302l414 453z" />
    <glyph glyph-name="uniE61D" unicode="&#xe61d;" 
d="M512 300zM192 300q0 132 94 226t226 94t226 -94t94 -226t-94 -226t-226 -94t-226 94t-94 226z" />
    <glyph glyph-name="uniE61E" unicode="&#xe61e;" 
d="M507 -156q-115 0 -213 56.5t-155 154.5t-57 213t57 212.5t155 154.5t213 57t212.5 -57t154.5 -154.5t57 -212.5t-57 -213t-154.5 -154.5t-212.5 -56.5zM507 635q-100 0 -184.5 -49t-134 -134t-49.5 -184.5t49.5 -184t134 -133.5t184 -49t184.5 49t134 133.5t49 184.5
q0 60 -18.5 116t-52.5 101t-79.5 79t-101.5 52.5t-115 18.5zM356 -12q-4 0 -7 1q-75 43 -118.5 118t-43.5 161q0 4 2 7t5 5t7 2q3 0 5.5 -1t4.5 -3t3 -4.5t1 -5.5q0 -52 18 -100.5t51.5 -88t78.5 -65.5q12 -7 5 -19q-1 -4 -4.5 -5.5t-7.5 -1.5zM479 -51h-2q-4 1 -8.5 1.5
t-9.5 0.5q-4 1 -7 3.5t-4 6t-1 7.5q1 5 6 8.5t10 3.5q8 -2 17 -2q6 -1 9.5 -5.5t3.5 -10.5q-1 -13 -14 -13zM159 459q-9 0 -16 5q-35 22 -55 59t-20 79q0 67 48 115t115 48q50 0 91 -27t60 -73q5 -10 0.5 -21t-15.5 -16q-3 -1 -7 -1.5t-7.5 0t-7 1.5t-6.5 3.5t-5.5 5.5
t-3.5 6q-4 10 -10 19t-13.5 16t-16 12.5t-18 9.5t-20 6t-21.5 2q-21 0 -41 -8t-34 -22.5t-22.5 -34.5t-8.5 -41q0 -59 49 -90q10 -7 12.5 -18.5t-4.5 -21.5q-3 -6 -9.5 -9.5t-13.5 -3.5zM865 459q-15 0 -24 13q-6 10 -3.5 21.5t12.5 18.5q49 31 49 90q0 44 -31 75t-75 31
q-22 0 -41.5 -8t-34.5 -22.5t-23 -34.5q-4 -11 -15 -15t-22 0.5t-15.5 15.5t0.5 21q19 46 60 73t91 27q16 0 32.5 -3t31 -9.5t27.5 -15.5t24 -20t20 -24t15.5 -27.5t9.5 -31t3 -32.5q0 -28 -9 -54t-26 -47.5t-40 -36.5l-4 -2l-4 -2h-4q-2 -1 -4 -1zM207 -165q-10 0 -17 6
q-10 7 -11.5 18.5t5.5 20.5l63 82q7 9 18.5 10.5t21 -5.5t11 -18.5t-5.5 -21.5l-63 -81q-8 -11 -22 -11zM797 -165q-4 0 -8.5 1t-8 3.5t-6.5 6.5l-62 81q-7 10 -5.5 21.5t11 18.5t21 5.5t18.5 -10.5l62 -82q8 -9 6.5 -20.5t-11.5 -18.5q-4 -3 -8 -4.5t-9 -1.5zM587 151
q-3 0 -6.5 0.5t-7 2.5t-6.5 5l-77 82q-4 4 -4 20v225q0 12 8.5 20t20.5 8t20 -8t8 -20v-213l69 -74q8 -9 7 -20.5t-10 -19.5q-8 -8 -22 -8z" />
    <glyph glyph-name="uniE61F" unicode="&#xe61f;" horiz-adv-x="1118" 
d="M790 812q-37 0 -72.5 -9t-69.5 -26q-5 -3 -9.5 -5.5t-9 -5.5t-9.5 -6t-9.5 -6t-9 -6.5t-9 -6.5t-9.5 -6.5t-9 -6.5t-9 -6.5t-10 -6.5q-2 1 -4 3q-96 94 -225 94q-86 0 -163 -46q-59 -35 -99 -91t-55.5 -123t-3.5 -136q19 -113 105 -203q169 -176 379 -395q29 -30 70 -30
q41 1 69 30q263 272 393 411q115 123 93 293q-18 126 -112 208t-212 82z" />
    <glyph glyph-name="uniE620" unicode="&#xe620;" 
d="M271 699h447q1 0 2 1t1 3v37l-3 3h-447q-2 0 -3 -1t-1 -2v-37q0 -4 4 -4zM196 606h595q3 0 3 4v37q0 1 -1 2t-2 1h-595q-3 0 -3 -3v-37q1 -3 3 -4zM644 261h-82l-18 63q-6 13 -12.5 21t-11.5 11t-10 3t-9 -3t-7.5 -6.5t-6 -8t-4 -8.5t-2.5 -7l-1 -2l-19 -63h-86
q-25 -2 -29.5 -12t3.5 -20l8 -9l71 -62l-29 -68q-10 -32 -1.5 -41.5t23.5 -5.5l15 4l76 56l75 -55q28 -9 36.5 0t4.5 25l-3 17l-31 67l72 60q15 19 10 29t-18 12zM563 183l19 -94l-71 51l-71 -47l20 89l-58 40l70 2l40 91l39 -90l63 -4zM824 555h-624q-23 0 -43.5 -9
t-35 -23.5t-23.5 -35t-9 -42.5v-478q0 -46 32.5 -78t78.5 -32h624q46 0 78.5 32t32.5 78v478q0 30 -15 55t-40.5 40t-55.5 15zM896 4q0 -46 -32.5 -78t-77.5 -32h-550q-30 0 -55 14.5t-40 40t-15 55.5v405q0 46 32.5 78t77.5 32h550q45 0 77.5 -32t32.5 -78v-405z" />
    <glyph glyph-name="uniE621" unicode="&#xe621;" 
d="M781 576l50 50l34 -33l-50 -51zM536 668h-48v48h-48v48h144v-48h-48v-48zM895 285q0 -104 -51.5 -192t-139.5 -139.5t-192 -51.5t-192 51.5t-139.5 139.5t-51.5 192q0 78 30.5 149t81.5 122t122 81.5t149 30.5q104 0 192 -51.5t139.5 -139.5t51.5 -192zM177 285
q0 -68 26.5 -130t71.5 -107t107 -71.5t130 -26.5q91 0 168 45t122 122t45 168q0 68 -26.5 130t-71.5 107t-107 71.5t-130 26.5q-91 0 -168 -45t-122 -122t-45 -168zM536 524v-198q7 -4 12.5 -10t8.5 -14t3 -17q0 -13 -6.5 -24t-17.5 -17.5t-24 -6.5q-20 0 -34 14t-14 34
q0 7 2 13t5 11.5t7.5 9.5t9.5 7v198h48z" />
    <glyph glyph-name="uniE622" unicode="&#xe622;" 
d="M573 590q95 0 162.5 -67.5t67.5 -163.5v-1v-1v-5l-1 -35h35q63 0 108 -45t45 -108q0 -31 -12.5 -59.5t-33 -49t-48.5 -33t-59 -12.5h-8h-624q-71 0 -121 50t-50 121q0 54 32 98.5t84 62.5l19 7l3 20q4 24 18.5 43.5t36 30.5t46.5 11q24 0 46 -11l31 -16l15 32
q29 59 85.5 95t122.5 36zM573 624q-78 0 -142 -41.5t-97 -109.5q-5 3 -11 5.5t-12 3.5l-12 4q-6 1 -12.5 1.5t-13.5 0.5q-11 0 -22 -2t-21 -5t-19.5 -8t-18 -11t-15.5 -13.5t-13.5 -16t-11.5 -18t-8.5 -19.5t-4.5 -21q-62 -21 -100.5 -74t-38.5 -119q0 -56 27.5 -103
t74.5 -74.5t103 -27.5h632q77 1 132 55.5t55 132t-55 132.5t-132 55v5v3q0 110 -77.5 187.5t-186.5 77.5v0z" />
    <glyph glyph-name="uniE623" unicode="&#xe623;" 
d="M799 562q-12 -31 -27 -101q-2 -7 -3 -12t-1 -8l-44 -201q-7 -30 -9 -47t-2 -30q0 -16 11 -27t27 -11q24 0 50.5 16.5t47.5 44.5q36 47 56 108q7 21 11.5 41.5t6.5 41t2 41.5q0 147 -93.5 235t-252.5 88q-22 0 -43 -1.5t-41 -5.5t-40 -9.5t-39 -12.5q-38 -15 -72.5 -36
t-64.5 -49q-72 -68 -107.5 -153t-35.5 -187q0 -191 113.5 -306t301.5 -115q39 0 78 5.5t78 15.5q78 22 154 65l23 -54q-93 -52 -186 -79q-46 -14 -91 -20.5t-88 -6.5q-101 0 -189.5 34.5t-157.5 101.5q-67 63 -101 150t-34 193q0 119 44 219.5t131 179.5q36 33 78.5 59
t90.5 43q97 36 205 36q182 0 294.5 -105.5t112.5 -277.5q0 -66 -17 -126.5t-50 -111.5q-43 -66 -108 -107q-17 -10 -33 -17.5t-32 -12.5t-32 -7.5t-31 -2.5q-50 0 -75 22.5t-29 68.5q-44 -43 -86.5 -64.5t-84.5 -21.5q-69 0 -111 52t-42 140q0 11 0.5 22.5t2 22.5t3.5 21.5
t4.5 21.5t6.5 21q8 26 20.5 50t28.5 46q44 58 106 92q62 33 127 33q28 0 57 -8q14 -4 29 -10t30 -15l23 28h99zM591 497q-10 2 -13 2q-5 1 -9 1q-66 0 -112 -69t-46 -170q0 -59 20 -90q3 -4 5.5 -7t6 -6t6.5 -5.5t7 -4.5t8 -3.5t8 -2.5t8.5 -1.5t9.5 -0.5q13 0 25 4.5
t25 13.5t25.5 22t25.5 30l38 227z" />
    <glyph glyph-name="uniE624" unicode="&#xe624;" 
d="M512 300zM384 300q0 53 37.5 90.5t90.5 37.5t90.5 -37.5t37.5 -90.5t-37.5 -90.5t-90.5 -37.5t-90.5 37.5t-37.5 90.5zM288 300q0 36 11.5 69.5t32.5 60t49 44.5l-47 49q-19 -14 -35 -31q-75 -80 -75 -192t75 -192q4 -4 9 -8l8 -8l10 -8q4 -4 8 -7l47 49q-43 27 -68 73.5
t-25 100.5zM736 300q0 -36 -11.5 -69.5t-32.5 -60t-49 -44.5l47 -49l12 10l12 10q6 5 11 11q75 80 75 192t-75 192q-16 17 -35 31l-47 -49q28 -18 49 -44.5t32.5 -60t11.5 -69.5zM128 300q0 82 34.5 153t94.5 119l-46 48q-18 -15 -35 -32q-26 -28 -46.5 -60.5t-35.5 -69.5
q-30 -75 -30 -158t30 -158q15 -37 35.5 -69.5t46.5 -60.5q17 -17 35 -32l46 48q-60 48 -94.5 119t-34.5 153zM896 300q0 -82 -34.5 -153t-94.5 -119l46 -47q21 17 35 31q53 57 82 130q30 75 30 158t-30 158q-29 73 -82 130q-6 5 -11.5 10.5t-11.5 11t-12 10.5l-46 -48
q60 -48 94.5 -119t34.5 -153z" />
    <glyph glyph-name="uniE625" unicode="&#xe625;" 
d="M945 774h-866q-14 0 -26.5 -7t-19.5 -19t-7 -26v-676q0 -22 15.5 -37t37.5 -15h866q22 0 37.5 15t15.5 37v676q0 14 -7 26t-19.5 19t-26.5 7zM79 725h866q4 0 4 -3v-560l-213 264l-209 -218l-228 322l-224 -253v445q0 3 4 3zM945 43h-866q-3 1 -4 3v157l220 248l226 -320
l212 221l216 -268v-38q0 -3 -4 -3zM784 512q32 0 54.5 22.5t22.5 54.5q0 21 -10.5 38.5t-28 28t-38.5 10.5q-16 0 -30 -6.5t-24.5 -16.5t-16.5 -24.5t-6 -29.5q0 -32 22.5 -54.5t54.5 -22.5zM784 617q8 0 14.5 -4t10 -10.5t3.5 -14t-3.5 -14t-10 -10t-14.5 -3.5t-14.5 3.5
t-10 10t-3.5 14.5q0 4 1.5 8.5t4 8t6 6t7.5 4t9 1.5z" />
    <glyph glyph-name="uniE626" unicode="&#xe626;" 
d="M464 336q20 -20 48 -20t48 20t20 48t-20 48q-22 22 -276 196l-52 36l36 -52q174 -254 196 -276zM512 864h-30v-199q0 -13 8.5 -22t21.5 -9q8 0 15 4.5t11 11.5t4 15v137q81 -6 153 -41t124 -90.5t82 -130t30 -156.5q0 -85 -33 -162.5t-89.5 -134t-134 -89.5t-162.5 -33
q-161 0 -281 109q-117 105 -135 260q-3 25 -3 50q0 84 31.5 160.5t90.5 135.5q9 9 9 21.5t-9 21.5q-8 9 -21 9t-22 -9q-68 -68 -104 -155.5t-36 -183.5q0 -130 64.5 -240.5t175 -175t240.5 -64.5t240.5 64.5t175 175t64.5 240.5t-64.5 240.5t-175 175t-240.5 64.5z" />
    <glyph glyph-name="uniE627" unicode="&#xe627;" horiz-adv-x="1025" 
d="M1001 881q-6 5 -12.5 8.5t-13.5 5t-15 1.5q-6 0 -11 -1l-544 -96q-23 -4 -38 -22t-15 -41v-64v-32v-453q-52 37 -121 37q-41 0 -81 -13q-46 -16 -81 -45t-53 -67q-29 -60 -7 -120q18 -49 66 -78t110 -29q21 0 41 3.5t40 9.5q46 15 81 44.5t53 67.5q15 31 15 67h1v512
q5 0 11 1l533 94v-388q-25 18 -56 27.5t-65 9.5q-21 0 -41 -3.5t-40 -9.5q-46 -16 -81 -45t-53 -67q-29 -60 -7 -120q19 -49 66.5 -78t109.5 -29q42 0 81 13q19 6 35.5 14.5t31 19t27.5 23t23 26.5t17 29q8 16 11.5 33t3.5 34h1v576v32v64q0 14 -6 27t-17 22zM246.5 -54
q-57.5 -19 -109.5 -3t-68 58.5t13.5 86t87 62.5t109.5 2.5t68 -58.5t-13.5 -85.5t-87 -62.5zM853 42q-77 -25 -135 8q-31 19 -42 48q-16 42 13.5 85.5t87 62.5t109.5 2.5t67.5 -58.5t-14 -85.5t-86.5 -62.5zM959 736l-544 -96v32v64l544 96v-64v-32z" />
    <glyph glyph-name="uniE628" unicode="&#xe628;" 
d="M1003 473h-375l-116 357l-116 -357h-375l304 -220l-116 -357l303 221l303 -221l-115 357zM701 54l-189 137l-189 -137l72 222l-188 137h233l72 222l72 -222h233l-188 -137z" />
    <glyph glyph-name="uniE629" unicode="&#xe629;" 
d="M325 287l343 -343l31 31l-312 312l312 313l-31 31l-343 -343v-1z" />
    <glyph glyph-name="uniE62A" unicode="&#xe62a;" 
d="M319 -24q3 -3 6.5 -4.5t7.5 -1.5q9 0 15 6l307 307q6 6 6 14.5t-6 14.5l-307 307q-6 6 -14.5 6t-14.5 -6q-12 -15 0 -29l292 -293l-292 -292q-6 -6 -6 -14.5t6 -14.5z" />
    <glyph glyph-name="uniE62B" unicode="&#xe62b;" 
d="M158 471h69l290 -290l290 290h68l-358 -358z" />
    <glyph glyph-name="uniE62C" unicode="&#xe62c;" 
d="M832 245l-35 -39l-284 272l-281 -259l-38 39l319 298z" />
    <glyph glyph-name="uniE62D" unicode="&#xe62d;" 
d="M851 638h-677q-23 0 -42.5 -11t-31 -30.5t-11.5 -42.5v-508q0 -35 25 -60t60 -25h677q35 0 60 25t25 60v508q0 23 -11.5 42.5t-31 30.5t-42.5 11zM851 469l-339 -212l-338 212v85l338 -212l339 212v-85z" />
    <glyph glyph-name="uniE62E" unicode="&#xe62e;" 
d="M927 775q0 1 -1 1v3q-1 2 -4 6q0 1 -0.5 2.5t-1.5 1.5v1h-1q-1 1 -5 4l-5 3q-3 1 -6.5 2t-6.5 1h-224q-13 0 -22.5 -9.5t-9.5 -22.5t9.5 -22.5t22.5 -9.5h139l-152 -135q-94 71 -211 71q-146 0 -249 -103t-103 -249t103 -249t249 -103t249 103t103 249q0 137 -94 238
l158 139v-121q0 -13 9.5 -22.5t22.5 -9.5t22.5 9.5t9.5 22.5v192q0 1 -1 7zM736 320q0 -119 -84.5 -203.5t-203.5 -84.5t-203.5 84.5t-84.5 203.5t84.5 203.5t203.5 84.5t203.5 -84.5t84.5 -203.5z" />
    <glyph glyph-name="uniE62F" unicode="&#xe62f;" 
d="M958 250h-892q-14 0 -25.5 7t-18 18.5t-6.5 24.5q0 21 14.5 35.5t35.5 14.5h892q21 0 35.5 -14.5t14.5 -35.5q0 -13 -6.5 -24.5t-18 -18.5t-25.5 -7zM958 647h-892q-21 0 -35.5 14.5t-14.5 35t14.5 35t35.5 14.5h892q21 0 35.5 -14.5t14.5 -34.5q0 -14 -6.5 -25.5
t-18 -18t-25.5 -6.5zM66 -47h892q21 0 35.5 -14.5t14.5 -35.5q0 -13 -6.5 -24.5t-18 -18t-25.5 -6.5h-892q-14 0 -25.5 6.5t-18 18t-6.5 25t6.5 25t18 18t25.5 6.5z" />
    <glyph glyph-name="uniE630" unicode="&#xe630;" 
d="M68 438zM961 445q-14 50 -33.5 88.5t-42.5 63t-48 39.5t-53 20t-54.5 3.5t-55.5 -9.5q-18 -5 -39 -12.5t-35.5 -13t-37.5 -10.5t-50 -6q-43 4 -84.5 22.5t-75.5 25.5q-143 26 -211 -58q-38 -46 -66 -137l-13 -36q-26 -85 -40.5 -155.5t-18 -118.5t1 -85.5t13 -59
t22.5 -36.5t24.5 -21t23.5 -9q64 -17 153 62q14 13 41 40q64 62 92 72q4 2 8 3q102 28 236 5q27 -4 54.5 -22t51.5 -42l50 -50q25 -25 56 -45.5t63 -26.5q107 -8 126 114.5t-58 394.5zM880 -29q-27 11 -59.5 39t-58 55.5t-60 53t-67.5 32.5q-69 14 -151.5 11.5t-106.5 -13.5
q-23 -4 -53 -27.5t-58.5 -51.5t-58 -55t-60 -40t-55.5 -3q-20 8 -33 25.5t-18 43.5t-7.5 52t2.5 63t9 64t13.5 66t14.5 59t14 52l14 41q38 127 89.5 165.5t156.5 20.5q15 -2 72 -25t94 -23q40 -2 113.5 24.5t106.5 26.5q26 2 48 -2.5t39.5 -16t32 -24t26.5 -31t20 -34
t15.5 -36.5t11.5 -34t9 -31.5t7 -23.5q56 -191 49.5 -287t-35 -123t-76.5 -13zM678 385zM637 385q0 17 12 29t29 12q11 0 20.5 -5.5t15 -15t5.5 -20.5q0 -28 -26 -38q-8 -3 -15 -3q-9 0 -16.5 3t-13 8.5t-8.5 13.5t-3 16zM831 385zM790 385q0 17 12 29t29 12q11 0 20.5 -5.5
t15 -15t5.5 -20.5q0 -28 -25 -38q-8 -3 -16 -3t-15.5 3t-13 8.5t-9 13.5t-3.5 16zM755 308zM714 308q0 17 12 29t29 12q8 0 16 -3t13.5 -8.5t8.5 -13.5t3 -16q0 -7 -2 -13t-6 -11t-9 -9t-11 -6t-13 -2q-17 0 -29 12t-12 29zM755 462zM714 462q0 17 12 29t29 12q8 0 16 -3.5
t13.5 -9t8.5 -13t3 -16t-3 -16t-8.5 -13t-13.5 -8.5t-16 -3q-17 0 -29 12t-12 29zM309 385zM228 385q0 34 24 58t57.5 24t57.5 -24t24 -58t-24 -58t-58 -24q-7 0 -14.5 1.5t-14 4t-12.5 6t-11.5 8t-10 9.5t-8 11.5t-6 13t-3.5 13.5t-1 15zM309 538q-41 0 -76.5 -20.5
t-56 -55.5t-20.5 -77q0 -64 45 -109t108.5 -45t108.5 45t45 109q0 75 -60 121q-42 32 -94 32zM309 263q-33 0 -61 16.5t-44 44.5t-16 61q0 50 35.5 85.5t85.5 35.5q15 0 28.5 -3t25.5 -9t22.5 -14.5t19 -19t14.5 -22.5t9 -25.5t3 -27.5q0 -33 -16.5 -61t-44.5 -44.5
t-61 -16.5z" />
    <glyph glyph-name="uniE631" unicode="&#xe631;" 
d="M849 -93h-674q-23 0 -42.5 11.5t-31 31t-11.5 42.5v65q0 8 6 14t14.5 6t14.5 -6t6 -14v-65q0 -9 3.5 -17t9.5 -14t14 -9.5t17 -3.5h674q18 0 31 13t13 31v65q0 4 1.5 8t4.5 6.5t6.5 4t8.5 1.5t10 -2.5t7.5 -7.5t2.5 -10v-65q0 -23 -11 -42.5t-31 -31t-43 -11.5zM511 60
q-27 0 -46 19l-222 212q-24 23 -15 45t42 22h110v292q0 18 12.5 30.5t30.5 12.5h178q12 0 22 -6t15.5 -16t5.5 -21v-292h110q33 0 42 -22t-15 -44l-223 -213q-3 -3 -6 -5l-6 -4l-6 -4l-8 -2q-3 -2 -6 -2l-8 -2h-7v0zM276 316l217 -207q5 -5 11.5 -6.5t13 0t11.5 5.5l218 208
h-123q-9 0 -15 6.5t-6 14.5v313q0 2 -2 2h-178q-2 0 -2 -2v-313q0 -8 -6 -14.5t-15 -6.5h-124zM276 316z" />
  </font>
</defs>
</svg>
